<svg width="108" height="114" viewBox="0 0 108 114" fill="none" xmlns="http://www.w3.org/2000/svg">
<path d="M6 10H78C86.8366 10 94 17.1634 94 26V98H6V10Z" stroke="#9400FF" stroke-width="12"/>
<path d="M30.6875 41.3125L42.0781 39.3906V48.8125L41.7969 60.1562L55.25 56.875C57.1562 50.8438 58.1094 45.375 58.1094 40.4688C58.1094 39.4375 58.0469 38.4688 57.9219 37.5625C52.6406 35.9062 42.2188 34.7656 26.6562 34.1406L28.4375 23.0781C41.7812 23.6094 53.3438 24.8906 63.125 26.9219C63.9688 27.1094 65.3125 28.3437 67.1562 30.625C68.9688 32.875 69.9062 34.4531 69.9688 35.3594C70.0625 36.2656 70.1094 37.1562 70.1094 38.0312V40.6562C70.1094 44.7188 69.0781 49.9688 67.0156 56.4062C65.8906 59.9062 64.7812 62.1562 63.6875 63.1562C63.1875 63.625 62.7344 63.9688 62.3281 64.1875L57.7344 65.6875C62.2969 70.6562 66.5156 76.1094 70.3906 82.0469L60.6406 88.6562L48.9219 68.0312L42.0781 68.4062L41.7031 85L31.5312 85.8438L30.6875 41.3125Z" fill="#E60A0A"/>
</svg>
